REM DIRINDEX 1\2\3,1\2\4,1\2\5,1\2\6
REM DIRNAME folder01,folder02,folder03,folder04,folder05,folder06
TITLE ""
FILE "146 146.mp3" MP3
  TRACK 01 AUDIO
    TITLE "0:"
    INDEX 01 00:00:00
  TRACK 02 AUDIO
    TITLE "3:cjc157_5459"
    INDEX 01 00:00:09
  TRACK 03 AUDIO
    TITLE "0:"
    INDEX 01 00:02:04
  TRACK 04 AUDIO
    TITLE "4:cjc157_5460"
    INDEX 01 00:02:51
  TRACK 05 AUDIO
    TITLE "0:"
    INDEX 01 00:03:55
  TRACK 06 AUDIO
    TITLE "5:cjc157_5461"
    INDEX 01 00:04:29
  TRACK 07 AUDIO
    TITLE "0:"
    INDEX 01 00:06:31
  TRACK 08 AUDIO
    TITLE "3:cjc157_5462"
    INDEX 01 00:07:05
  TRACK 09 AUDIO
    TITLE "0:"
    INDEX 01 00:08:28
  TRACK 10 AUDIO
    TITLE "4:cjc157_5463"
    INDEX 01 00:08:73
  TRACK 11 AUDIO
    TITLE "0:"
    INDEX 01 00:10:08
  TRACK 12 AUDIO
    TITLE "5:cjc157_5464"
    INDEX 01 00:10:53
  TRACK 13 AUDIO
    TITLE "0:"
    INDEX 01 00:13:35
  TRACK 14 AUDIO
    TITLE "3:cjc157_5465"
    INDEX 01 00:14:07
  TRACK 15 AUDIO
    TITLE "0:"
    INDEX 01 00:16:14
  TRACK 16 AUDIO
    TITLE "4:cjc157_5466"
    INDEX 01 00:16:59
  TRACK 17 AUDIO
    TITLE "0:"
    INDEX 01 00:17:69
  TRACK 18 AUDIO
    TITLE "5:cjc157_5467"
    INDEX 01 00:18:41
  TRACK 19 AUDIO
    TITLE "0:"
    INDEX 01 00:20:45
  TRACK 20 AUDIO
    TITLE "3:cjc157_5468"
    INDEX 01 00:21:11
  TRACK 21 AUDIO
    TITLE "0:"
    INDEX 01 00:23:18
  TRACK 22 AUDIO
    TITLE "4:cjc157_5469"
    INDEX 01 00:23:67
  TRACK 23 AUDIO
    TITLE "0:"
    INDEX 01 00:24:71
  TRACK 24 AUDIO
    TITLE "5:cjc157_5470"
    INDEX 01 00:25:45
  TRACK 25 AUDIO
    TITLE "0:"
    INDEX 01 00:27:69
  TRACK 26 AUDIO
    TITLE "3:cjc157_5471"
    INDEX 01 00:28:39
  TRACK 27 AUDIO
    TITLE "0:"
    INDEX 01 00:29:66
  TRACK 28 AUDIO
    TITLE "4:cjc157_5472"
    INDEX 01 00:30:36
  TRACK 29 AUDIO
    TITLE "0:"
    INDEX 01 00:31:69
  TRACK 30 AUDIO
    TITLE "5:cjc157_5473"
    INDEX 01 00:32:37
  TRACK 31 AUDIO
    TITLE "0:"
    INDEX 01 00:36:07
  TRACK 32 AUDIO
    TITLE "3:cjc157_5474"
    INDEX 01 00:36:54
  TRACK 33 AUDIO
    TITLE "0:"
    INDEX 01 00:37:56
  TRACK 34 AUDIO
    TITLE "4:cjc157_5475"
    INDEX 01 00:38:22
  TRACK 35 AUDIO
    TITLE "0:"
    INDEX 01 00:39:41
  TRACK 36 AUDIO
    TITLE "5:cjc157_5476"
    INDEX 01 00:40:21
  TRACK 37 AUDIO
    TITLE "0:"
    INDEX 01 00:43:09
  TRACK 38 AUDIO
    TITLE "3:cjc157_5477"
    INDEX 01 00:43:52
  TRACK 39 AUDIO
    TITLE "0:"
    INDEX 01 00:44:65
  TRACK 40 AUDIO
    TITLE "4:cjc157_5478"
    INDEX 01 00:45:37
  TRACK 41 AUDIO
    TITLE "0:"
    INDEX 01 00:46:54
  TRACK 42 AUDIO
    TITLE "5:cjc157_5479"
    INDEX 01 00:47:28
  TRACK 43 AUDIO
    TITLE "0:"
    INDEX 01 00:51:11
  TRACK 44 AUDIO
    TITLE "3:cjc157_5480"
    INDEX 01 00:51:56
  TRACK 45 AUDIO
    TITLE "0:"
    INDEX 01 00:53:13
  TRACK 46 AUDIO
    TITLE "4:cjc157_5481"
    INDEX 01 00:53:57
  TRACK 47 AUDIO
    TITLE "0:"
    INDEX 01 00:54:70
  TRACK 48 AUDIO
    TITLE "5:cjc157_5482"
    INDEX 01 00:55:44
  TRACK 49 AUDIO
    TITLE "0:"
    INDEX 01 00:58:22
  TRACK 50 AUDIO
    TITLE "5:cjc157_5483"
    INDEX 01 00:58:67
  TRACK 51 AUDIO
    TITLE "0:"
    INDEX 01 01:01:40
  TRACK 52 AUDIO
    TITLE "3:cjc157_5484"
    INDEX 01 01:02:12
  TRACK 53 AUDIO
    TITLE "0:"
    INDEX 01 01:03:27
  TRACK 54 AUDIO
    TITLE "4:cjc157_5485"
    INDEX 01 01:04:00
  TRACK 55 AUDIO
    TITLE "0:"
    INDEX 01 01:05:11
  TRACK 56 AUDIO
    TITLE "5:cjc157_5486"
    INDEX 01 01:05:58
  TRACK 57 AUDIO
    TITLE "0:"
    INDEX 01 01:09:38
  TRACK 58 AUDIO
    TITLE "3:cjc157_5487"
    INDEX 01 01:10:08
  TRACK 59 AUDIO
    TITLE "0:"
    INDEX 01 01:11:31
  TRACK 60 AUDIO
    TITLE "4:cjc157_5488"
    INDEX 01 01:12:01
  TRACK 61 AUDIO
    TITLE "0:"
    INDEX 01 01:13:14
  TRACK 62 AUDIO
    TITLE "5:cjc157_5489"
    INDEX 01 01:13:63
  TRACK 63 AUDIO
    TITLE "0:"
    INDEX 01 01:17:67
